<?xml version="1.0" encoding="utf-8"?>
<!-- Generator: Adobe Illustrator 16.0.0, SVG Export Plug-In . SVG Version: 6.00 Build 0)  -->
<!DOCTYPE svg PUBLIC "-//W3C//DTD SVG 1.1//EN" "http://www.w3.org/Graphics/SVG/1.1/DTD/svg11.dtd">
<svg version="1.1" id="Layer_1" xmlns="http://www.w3.org/2000/svg" xmlns:xlink="http://www.w3.org/1999/xlink" x="0px" y="0px"
	 width="21px" height="21px" viewBox="0 0 21 21" enable-background="new 0 0 21 21" xml:space="preserve">
<rect fill="none" width="20.999" height="21"/>
<g>
	<path fill="#5D5D5D" d="M20.764,19.479l-5.167-5.168c-0.315-0.315-0.826-0.315-1.141,0c-0.015,0.013-0.02,0.031-0.03,0.047
		c-0.01,0.007-0.022,0.011-0.031,0.021c-1.412,1.455-3.31,2.257-5.339,2.257c-4.102,0-7.438-3.335-7.438-7.438
		c0-4.102,3.337-7.439,7.438-7.439c4.102,0,7.438,3.337,7.438,7.439c0,0.758-0.112,1.505-0.337,2.221
		c-0.134,0.426,0.104,0.879,0.531,1.014c0.422,0.133,0.878-0.104,1.011-0.532c0.272-0.871,0.411-1.78,0.411-2.702
		c0-4.993-4.062-9.054-9.054-9.054C4.062,0.142,0,4.204,0,9.197c0,4.992,4.062,9.055,9.054,9.055c2.223,0,4.307-0.796,5.957-2.243
		l4.61,4.612c0.159,0.157,0.364,0.237,0.571,0.237s0.413-0.08,0.572-0.237C21.078,20.307,21.078,19.794,20.764,19.479z"/>
	<path fill="#CAB2D5" d="M9.156,14.954c-0.446,0-0.808-0.362-0.808-0.808c0-0.447,0.362-0.81,0.808-0.81
		c2.283,0,4.14-1.856,4.14-4.141c0-0.446,0.361-0.807,0.808-0.807c0.447,0,0.809,0.361,0.809,0.807
		C14.912,12.371,12.33,14.954,9.156,14.954z"/>
</g>
</svg>
