<?xml version="1.0" encoding="utf-8"?>
<!-- Generator: Adobe Illustrator 16.0.0, SVG Export Plug-In . SVG Version: 6.00 Build 0)  -->
<!DOCTYPE svg PUBLIC "-//W3C//DTD SVG 1.1//EN" "http://www.w3.org/Graphics/SVG/1.1/DTD/svg11.dtd">
<svg version="1.1" id="Layer_1" xmlns="http://www.w3.org/2000/svg" xmlns:xlink="http://www.w3.org/1999/xlink" x="0px" y="0px"
	 width="21px" height="21px" viewBox="0 0 21 21" enable-background="new 0 0 21 21" xml:space="preserve">
<rect x="0" fill="none" width="21" height="21"/>
<g>
	<path fill="#5D5D5D" d="M15.622,20.5H4.854c-1.272,0-2.308-1.035-2.308-2.308V2.808c0-1.272,1.035-2.308,2.308-2.308h10.769
		c1.272,0,2.308,1.035,2.308,2.308v1.875c0,0.425-0.344,0.769-0.77,0.769c-0.425,0-0.769-0.344-0.769-0.769V2.808
		c0-0.424-0.345-0.769-0.77-0.769H4.854c-0.424,0-0.77,0.345-0.77,0.769v15.385c0,0.425,0.345,0.77,0.77,0.77h10.769
		c0.425,0,0.77-0.345,0.77-0.77V16.51c0-0.426,0.344-0.77,0.769-0.77c0.426,0,0.77,0.344,0.77,0.77v1.683
		C17.93,19.465,16.895,20.5,15.622,20.5z"/>
	<path fill="#CAB2D5" d="M20.999,10.49c0-0.022,0.003-0.044,0-0.066c-0.009-0.088-0.03-0.173-0.068-0.253
		c-0.007-0.015-0.019-0.027-0.026-0.04c-0.025-0.047-0.05-0.094-0.085-0.134l-2.164-2.5c-0.277-0.322-0.763-0.355-1.085-0.079
		c-0.321,0.278-0.355,0.765-0.078,1.085l1.063,1.228h-5.77c-0.425,0-0.769,0.345-0.769,0.77s0.344,0.77,0.769,0.77h5.77
		l-1.063,1.228c-0.277,0.321-0.243,0.807,0.078,1.084c0.146,0.127,0.325,0.188,0.504,0.188c0.215,0,0.43-0.091,0.581-0.267
		l2.161-2.496c0-0.001,0.001-0.002,0.002-0.003l0.001-0.001v-0.001c0.047-0.055,0.087-0.115,0.117-0.182
		c0.008-0.018,0.01-0.035,0.017-0.054c0.009-0.025,0.016-0.05,0.022-0.076C20.992,10.624,21,10.558,20.999,10.49z"/>
</g>
</svg>
