<?xml version="1.0" encoding="utf-8"?>
<!-- Generator: Adobe Illustrator 16.0.0, SVG Export Plug-In . SVG Version: 6.00 Build 0)  -->
<!DOCTYPE svg PUBLIC "-//W3C//DTD SVG 1.1//EN" "http://www.w3.org/Graphics/SVG/1.1/DTD/svg11.dtd">
<svg version="1.1" id="Layer_1" xmlns="http://www.w3.org/2000/svg" xmlns:xlink="http://www.w3.org/1999/xlink" x="0px" y="0px"
	 width="512px" height="512px" viewBox="0 0 512 512" enable-background="new 0 0 512 512" xml:space="preserve">
<path d="M501.451,132.852c-5.902-21.934-23.195-39.223-45.125-45.129c-40.065-10.965-200.332-10.965-200.332-10.965
	s-160.261,0-200.327,10.547c-21.508,5.902-39.223,23.617-45.125,45.547C0,172.914,0,256,0,256s0,83.503,10.543,123.148
	c5.906,21.93,23.195,39.223,45.129,45.129c40.484,10.965,200.327,10.965,200.327,10.965s160.262,0,200.328-10.547
	c21.934-5.902,39.223-23.195,45.129-45.125c10.543-40.066,10.543-123.148,10.543-123.148S512.42,172.914,501.451,132.852z
	 M203.366,332.758V179.242L336.635,256L203.366,332.758z"/>
<rect x="0.001" y="0" fill="none" width="511.999" height="512"/>
</svg>
