<?xml version="1.0" encoding="utf-8"?>
<!-- Generator: Adobe Illustrator 16.0.0, SVG Export Plug-In . SVG Version: 6.00 Build 0)  -->
<!DOCTYPE svg PUBLIC "-//W3C//DTD SVG 1.1//EN" "http://www.w3.org/Graphics/SVG/1.1/DTD/svg11.dtd">
<svg version="1.1" id="Layer_1" xmlns="http://www.w3.org/2000/svg" xmlns:xlink="http://www.w3.org/1999/xlink" x="0px" y="0px"
	 width="48px" height="48px" viewBox="0 0 48 48" enable-background="new 0 0 48 48" xml:space="preserve">
<rect fill="none" width="48" height="48"/>
<g>
	<path fill="#A283B0" d="M29.565,17.916c-0.185-0.285-0.501-0.457-0.84-0.457h-0.37c-0.394,0-0.751,0.231-0.912,0.591l-3.942,8.784
		L19.56,18.05c-0.162-0.359-0.519-0.591-0.913-0.591h-0.37c-0.338,0-0.654,0.172-0.839,0.457c-0.184,0.285-0.211,0.643-0.072,0.952
		l5.063,11.252c0.162,0.359,0.519,0.59,0.912,0.59h0.321c0.394,0,0.751-0.23,0.912-0.59l5.064-11.252
		C29.776,18.559,29.75,18.201,29.565,17.916z"/>
	<path fill="#5D5D5D" d="M42.023,9.241l-2.979-1.72c0,0.006-0.002,0.012-0.003,0.018c-0.14-0.078-0.294-0.135-0.466-0.135
		c-0.539,0-0.977,0.438-0.977,0.977c0,0.347,0.191,0.637,0.465,0.811l-0.027,0.002l0.15,0.08c0.004,0.002,0.008,0.005,0.013,0.007
		l0.696,0.373l2.166,1.251c1.74,1.004,2.812,2.859,2.812,4.868v16.457c0,2.009-1.071,3.865-2.812,4.868l-14.251,8.229
		c-0.87,0.502-1.842,0.754-2.813,0.754s-1.941-0.252-2.811-0.754L6.936,37.098c-1.739-1.003-2.811-2.859-2.811-4.868V15.772
		c0-2.009,1.071-3.864,2.811-4.868l14.253-8.23c0.869-0.502,1.84-0.753,2.811-0.753s1.942,0.251,2.813,0.753l4.05,2.339l0.931,0.563
		c0.118,0.051,0.248,0.08,0.385,0.08c0.539,0,0.977-0.437,0.977-0.975c0-0.353-0.196-0.646-0.475-0.818
		c0.004-0.003,0.007-0.008,0.012-0.011l-4.92-2.84c-1.145-0.661-2.449-1.011-3.771-1.011c-1.321,0-2.626,0.35-3.771,1.011
		L5.976,9.241c-2.325,1.343-3.771,3.845-3.771,6.531v16.457c0,2.687,1.445,5.188,3.771,6.53l14.253,8.229
		C21.373,47.65,22.678,48,23.999,48c1.322,0,2.627-0.35,3.771-1.01l14.253-8.23c2.325-1.342,3.771-3.844,3.771-6.53V15.772
		C45.794,13.086,44.349,10.584,42.023,9.241z"/>
</g>
</svg>
