<?xml version="1.0" encoding="utf-8"?>
<!-- Generator: Adobe Illustrator 16.0.0, SVG Export Plug-In . SVG Version: 6.00 Build 0)  -->
<!DOCTYPE svg PUBLIC "-//W3C//DTD SVG 1.1//EN" "http://www.w3.org/Graphics/SVG/1.1/DTD/svg11.dtd">
<svg version="1.1" id="Layer_1" xmlns="http://www.w3.org/2000/svg" xmlns:xlink="http://www.w3.org/1999/xlink" x="0px" y="0px"
	 width="48px" height="48px" viewBox="0 0 48 48" enable-background="new 0 0 48 48" xml:space="preserve">
<rect fill="none" width="48" height="48"/>
<g>
	<path fill="#A283B0" d="M24.605,26.356c-0.179-0.209-0.436-0.335-0.71-0.35c-0.274-0.017-0.542,0.086-0.741,0.275
		c-0.731,0.698-1.648,1.037-2.803,1.037c-0.812,0-1.521-0.18-2.172-0.549c-0.649-0.369-1.145-0.858-1.517-1.497
		c-0.371-0.639-0.552-1.331-0.552-2.117s0.181-1.479,0.553-2.117c0.37-0.637,0.866-1.126,1.515-1.495
		c0.651-0.37,1.361-0.55,2.173-0.55c1.165,0,2.082,0.334,2.803,1.021c0.198,0.189,0.46,0.29,0.741,0.275
		c0.273-0.014,0.53-0.14,0.709-0.349l0.185-0.217c0.34-0.396,0.316-0.988-0.053-1.357c-0.556-0.555-1.227-0.979-1.993-1.259
		c-0.74-0.271-1.545-0.409-2.392-0.409c-1.21,0-2.326,0.282-3.318,0.839c-0.998,0.56-1.795,1.342-2.367,2.323
		c-0.573,0.98-0.863,2.089-0.863,3.294s0.29,2.314,0.862,3.295s1.368,1.762,2.368,2.323c0.994,0.557,2.11,0.839,3.318,0.839
		c0.834,0,1.638-0.141,2.388-0.418c0.771-0.287,1.443-0.712,1.997-1.266c0.369-0.368,0.393-0.959,0.053-1.356L24.605,26.356z"/>
	<path fill="#5D5D5D" d="M42.037,20.51l-14.752-9.252c0,0.001-0.002,0.001-0.002,0.002c-0.146-0.096-0.313-0.165-0.5-0.165
		c-0.518,0-0.939,0.42-0.939,0.938c0,0.392,0.242,0.726,0.584,0.866l14.629,9.174c1.42,0.891,1.42,2.96,0,3.852L9.361,45.803
		c-0.385,0.241-0.799,0.351-1.202,0.351c-1.185,0-2.278-0.944-2.278-2.277V4.121c0-1.333,1.094-2.276,2.278-2.276
		c0.403,0,0.817,0.109,1.202,0.351l10.51,6.592c0.002-0.004,0.005-0.007,0.007-0.011c0.161,0.131,0.358,0.221,0.583,0.221
		c0.519,0,0.938-0.42,0.938-0.938c0-0.399-0.251-0.735-0.602-0.871L10.342,0.632c-0.66-0.415-1.415-0.633-2.183-0.633
		c-2.274,0-4.125,1.849-4.125,4.122v39.755C4.034,46.149,5.885,48,8.159,48c0.768,0,1.522-0.219,2.183-0.633l31.695-19.879
		c1.209-0.758,1.93-2.062,1.93-3.489C43.967,22.572,43.246,21.268,42.037,20.51z"/>
</g>
</svg>
