<?xml version="1.0" encoding="utf-8"?>
<!-- Generator: Adobe Illustrator 16.0.0, SVG Export Plug-In . SVG Version: 6.00 Build 0)  -->
<!DOCTYPE svg PUBLIC "-//W3C//DTD SVG 1.1//EN" "http://www.w3.org/Graphics/SVG/1.1/DTD/svg11.dtd">
<svg version="1.1" id="Layer_1" xmlns="http://www.w3.org/2000/svg" xmlns:xlink="http://www.w3.org/1999/xlink" x="0px" y="0px"
	 width="48px" height="48px" viewBox="0 0 48 48" enable-background="new 0 0 48 48" xml:space="preserve">
<rect fill="none" width="48" height="48"/>
<g>
	<path fill="#A283B0" d="M28.125,17.702c-0.963-0.798-2.27-1.202-3.886-1.202h-3.809c-0.552,0-1,0.447-1,1v11.249
		c0,0.553,0.448,1,1,1h0.321c0.553,0,1-0.447,1-1v-2.856h2.487c1.616,0,2.923-0.404,3.886-1.203
		c1.018-0.846,1.535-2.021,1.535-3.494S29.143,18.547,28.125,17.702z M24.271,23.587h-2.52v-4.782h2.52
		c1.061,0,1.857,0.219,2.371,0.649c0.475,0.399,0.695,0.953,0.695,1.741c0,0.789-0.221,1.343-0.695,1.741
		C26.129,23.368,25.332,23.587,24.271,23.587z"/>
	<path fill="#5D5D5D" d="M44.854,12.155c-0.004-0.008-0.01-0.015-0.014-0.022c-0.027-0.048-0.051-0.099-0.078-0.146
		c-0.002,0.005-0.008,0.008-0.01,0.013c-0.176-0.264-0.461-0.447-0.801-0.447c-0.537,0-0.975,0.437-0.975,0.977
		c0,0.145,0.037,0.279,0.094,0.403h-0.006l0.35,0.583c1.693,3.122,2.664,6.69,2.664,10.484c0,12.174-9.906,22.08-22.08,22.08
		S1.92,36.174,1.92,24c0-12.175,9.905-22.079,22.079-22.079c5.423,0,10.392,1.968,14.238,5.222c0.006-0.008,0.014-0.015,0.02-0.021
		l0.018,0.012c0.17,0.275,0.461,0.469,0.811,0.469c0.535,0,0.971-0.435,0.971-0.971c0-0.252-0.104-0.479-0.262-0.65
		c0.006-0.003,0.012-0.007,0.02-0.01c-4.226-3.712-9.761-5.97-15.814-5.97C10.766,0.001,0,10.766,0,24c0,13.233,10.766,24,23.999,24
		c13.232,0,24-10.767,24-24C47.999,19.692,46.849,15.653,44.854,12.155z"/>
</g>
</svg>
