<?xml version="1.0" encoding="utf-8"?>
<!-- Generator: Adobe Illustrator 16.0.0, SVG Export Plug-In . SVG Version: 6.00 Build 0)  -->
<!DOCTYPE svg PUBLIC "-//W3C//DTD SVG 1.1//EN" "http://www.w3.org/Graphics/SVG/1.1/DTD/svg11.dtd">
<svg version="1.1" id="Layer_1" xmlns="http://www.w3.org/2000/svg" xmlns:xlink="http://www.w3.org/1999/xlink" x="0px" y="0px"
	 width="48px" height="48px" viewBox="0 0 48 48" enable-background="new 0 0 48 48" xml:space="preserve">
<rect fill="none" width="48" height="48"/>
<g>
	<path fill="#A283B0" d="M27.764,27.271H21.87V24.22h4.966c0.553,0,1-0.447,1-1v-0.293c0-0.553-0.447-1-1-1H21.87v-2.884h5.662
		c0.553,0,1-0.448,1-1v-0.294c0-0.552-0.447-1-1-1h-6.971c-0.553,0-1,0.448-1,1v10.815c0,0.555,0.447,1.002,1,1.002h7.203
		c0.553,0,1-0.447,1-1.002v-0.291C28.764,27.719,28.316,27.271,27.764,27.271z"/>
	<path fill="#5D5D5D" d="M46.367,20.06l-7.5-7.5c-0.006,0.006-0.012,0.011-0.016,0.017c-0.16-0.292-0.459-0.498-0.814-0.498
		c-0.518,0-0.938,0.42-0.938,0.938c0,0.307,0.156,0.564,0.383,0.736c-0.008,0.004-0.014,0.01-0.02,0.014l7.6,7.598
		c1.455,1.456,1.455,3.816,0,5.271L26.637,45.061c-0.729,0.728-1.684,1.093-2.637,1.093c-0.955,0-1.908-0.365-2.637-1.093
		L2.938,26.635c-1.456-1.454-1.456-3.814,0-5.271L21.363,2.939C22.091,2.212,23.044,1.848,24,1.848c0.953,0,1.909,0.364,2.637,1.092
		l5.424,5.424c0.172,0.22,0.428,0.37,0.727,0.37c0.518,0,0.938-0.42,0.938-0.938c0-0.28-0.127-0.523-0.32-0.695
		c0.002-0.001,0.002-0.002,0.002-0.002l-5.465-5.464C26.889,0.581,25.488,0.001,24,0.001c-1.489,0-2.889,0.58-3.942,1.634
		L1.633,20.06C0.58,21.112,0,22.512,0,24.001c0,1.486,0.579,2.887,1.633,3.939l18.424,18.426c1.054,1.053,2.453,1.632,3.942,1.632
		c1.489,0,2.889-0.579,3.942-1.632L46.367,27.94C47.42,26.888,48,25.487,48,24.001C48,22.512,47.42,21.112,46.367,20.06z"/>
</g>
</svg>
