<?xml version="1.0" encoding="utf-8"?>
<!-- Generator: Adobe Illustrator 16.0.0, SVG Export Plug-In . SVG Version: 6.00 Build 0)  -->
<!DOCTYPE svg PUBLIC "-//W3C//DTD SVG 1.1//EN" "http://www.w3.org/Graphics/SVG/1.1/DTD/svg11.dtd">
<svg version="1.1" id="Layer_1" xmlns="http://www.w3.org/2000/svg" xmlns:xlink="http://www.w3.org/1999/xlink" x="0px" y="0px"
	 width="20px" height="20px" viewBox="0 0 20 20" enable-background="new 0 0 20 20" xml:space="preserve">
<rect fill="none" width="20" height="20"/>
<g>
	<g>
		<path d="M19.825,4.546c-0.148-0.183-0.371-0.288-0.606-0.288H5.068L5.01,3.726L5.008,3.708C4.73,1.594,2.914,0,0.781,0
			C0.35,0,0,0.35,0,0.781s0.35,0.781,0.781,0.781c1.348,0,2.497,1.006,2.676,2.341l0.929,8.531
			c-0.812,0.369-1.378,1.188-1.378,2.136c0,0.007,0,0.013,0,0.02s0,0.013,0,0.02c0,1.292,1.051,2.344,2.344,2.344h0.318
			c-0.08,0.233-0.123,0.482-0.123,0.742C5.547,18.966,6.581,20,7.852,20s2.305-1.034,2.305-2.305c0-0.26-0.043-0.509-0.123-0.742
			h3.371c-0.08,0.233-0.123,0.482-0.123,0.742c0,1.271,1.033,2.305,2.305,2.305s2.305-1.034,2.305-2.305s-1.033-2.305-2.305-2.305
			H5.352c-0.431,0-0.781-0.351-0.781-0.781c0-0.007,0-0.013,0-0.02s0-0.013,0-0.02c0-0.431,0.351-0.781,0.781-0.781h9.974
			c1.388,0,2.659-0.858,3.243-2.186c0.173-0.396-0.007-0.856-0.402-1.03c-0.395-0.173-0.855,0.007-1.029,0.401
			c-0.328,0.749-1.057,1.252-1.812,1.252h-9.39L5.238,5.82h13.02l-0.383,1.833c-0.088,0.422,0.184,0.836,0.605,0.924
			c0.055,0.012,0.107,0.017,0.16,0.017c0.363,0,0.688-0.253,0.765-0.622l0.578-2.773C20.031,4.969,19.973,4.729,19.825,4.546z
			 M15.586,16.953c0.409,0,0.742,0.333,0.742,0.742s-0.333,0.742-0.742,0.742s-0.742-0.333-0.742-0.742S15.177,16.953,15.586,16.953
			z M7.852,16.953c0.409,0,0.742,0.333,0.742,0.742s-0.333,0.742-0.742,0.742s-0.742-0.333-0.742-0.742S7.442,16.953,7.852,16.953z"
			/>
	</g>
</g>
</svg>
