<?xml version="1.0" encoding="utf-8"?>
<!-- Generator: Adobe Illustrator 16.0.0, SVG Export Plug-In . SVG Version: 6.00 Build 0)  -->
<!DOCTYPE svg PUBLIC "-//W3C//DTD SVG 1.1//EN" "http://www.w3.org/Graphics/SVG/1.1/DTD/svg11.dtd">
<svg version="1.1" id="Layer_1" xmlns="http://www.w3.org/2000/svg" xmlns:xlink="http://www.w3.org/1999/xlink" x="0px" y="0px"
	 width="21px" height="21px" viewBox="0 0 21 21" enable-background="new 0 0 21 21" xml:space="preserve">
<rect y="0.001" fill="none" width="21" height="20.999"/>
<g>
	<path fill="#5D5D5D" d="M17.697,21H3.303c-1.375,0-2.495-1.147-2.495-2.56L2.241,2.486C2.238,1.148,3.357,0,4.732,0h11.535
		c1.375,0,2.493,1.148,2.493,2.56l1.052,11.631c0.039,0.443-0.289,0.837-0.732,0.876c-0.451,0.049-0.838-0.289-0.879-0.732
		L17.149,2.631c-0.004-0.591-0.398-1.016-0.883-1.016H4.732c-0.485,0-0.88,0.424-0.88,0.944L2.42,18.515
		c0.003,0.447,0.397,0.871,0.883,0.871h14.395c0.484,0,0.88-0.424,0.88-0.943c0-0.447,0.361-0.808,0.809-0.808
		c0.445,0,0.807,0.36,0.807,0.808C20.19,19.853,19.072,21,17.697,21z"/>
	<path fill="#CAB2D5" d="M10.501,8.424c-2.235,0-4.053-1.874-4.053-4.177c0-0.446,0.362-0.808,0.808-0.808
		c0.447,0,0.809,0.361,0.809,0.808c0,1.412,1.094,2.562,2.438,2.562c1.343,0,2.437-1.149,2.437-2.562
		c0-0.446,0.361-0.808,0.808-0.808c0.447,0,0.808,0.361,0.808,0.808C14.552,6.55,12.735,8.424,10.501,8.424z"/>
</g>
</svg>
