<?xml version="1.0" encoding="utf-8"?>
<!-- Generator: Adobe Illustrator 16.0.0, SVG Export Plug-In . SVG Version: 6.00 Build 0)  -->
<!DOCTYPE svg PUBLIC "-//W3C//DTD SVG 1.1//EN" "http://www.w3.org/Graphics/SVG/1.1/DTD/svg11.dtd">
<svg version="1.1" id="Layer_1" xmlns="http://www.w3.org/2000/svg" xmlns:xlink="http://www.w3.org/1999/xlink" x="0px" y="0px"
	 width="21px" height="21px" viewBox="0 0 21 21" enable-background="new 0 0 21 21" xml:space="preserve">
<rect y="0.001" fill="none" width="21" height="20.999"/>
<g>
	<path fill="#5D5D5D" d="M16.335,10.558c-0.37-0.25-0.872-0.149-1.12,0.22c-0.248,0.371-0.149,0.873,0.221,1.121
		c1.483,0.994,2.332,2.384,2.332,3.81v1.999c0,0.584-2.496,1.679-7.27,1.679c-4.772,0-7.269-1.095-7.269-1.679v-1.999
		c0-2.062,1.718-3.938,4.378-4.78c0.917-0.29,1.889-0.437,2.893-0.437c2.401,0,4.355-1.55,4.355-3.456v-3.58
		C14.855,1.55,12.901,0,10.5,0C8.097,0,6.144,1.55,6.144,3.456v3.58c0,0.892,0.438,1.695,1.139,2.309
		C7.229,9.36,7.173,9.372,7.12,9.389c-3.344,1.059-5.505,3.54-5.505,6.319v1.999c0,1.188,1.049,2.077,3.118,2.643
		C6.266,20.769,8.313,21,10.5,21c1.484,0,8.884-0.159,8.884-3.293v-1.999C19.384,13.734,18.272,11.856,16.335,10.558z M7.757,7.035
		v-3.58c0-0.998,1.255-1.84,2.743-1.84c1.486,0,2.74,0.843,2.74,1.84v3.58c0,0.998-1.254,1.84-2.74,1.84S7.757,8.033,7.757,7.035z"
		/>
	<path fill="#CAB2D5" d="M12.641,17.711c-0.387,0-0.729-0.277-0.796-0.671c-0.075-0.439,0.222-0.856,0.661-0.933l0.497-0.082
		c0.804-0.134,1.334-0.22,1.804-0.467c0.397-0.207,0.884-0.057,1.093,0.339c0.207,0.396,0.056,0.884-0.338,1.093
		c-0.703,0.369-1.406,0.484-2.299,0.63l-0.487,0.08C12.731,17.707,12.685,17.711,12.641,17.711z"/>
</g>
</svg>
