<?xml version="1.0" encoding="utf-8"?>
<!-- Generator: Adobe Illustrator 16.0.0, SVG Export Plug-In . SVG Version: 6.00 Build 0)  -->
<!DOCTYPE svg PUBLIC "-//W3C//DTD SVG 1.1//EN" "http://www.w3.org/Graphics/SVG/1.1/DTD/svg11.dtd">
<svg version="1.1" id="Layer_1" xmlns="http://www.w3.org/2000/svg" xmlns:xlink="http://www.w3.org/1999/xlink" x="0px" y="0px"
	 width="21px" height="21px" viewBox="0 0 21 21" enable-background="new 0 0 21 21" xml:space="preserve">
<rect x="0" fill="none" width="21" height="21"/>
<g>
	<path fill="#5D5D5D" d="M18.576,16.899c-0.446,0-0.808,0.361-0.808,0.808c0,0.585-2.497,1.678-7.269,1.678
		c-4.772,0-7.27-1.093-7.27-1.678v-1.998c0-2.062,1.719-3.938,4.379-4.78c0.915-0.291,1.888-0.438,2.892-0.438
		c2.401,0,4.355-1.55,4.355-3.455V3.456C14.855,1.551,12.901,0,10.5,0C8.098,0,6.143,1.551,6.143,3.456v3.579
		c0,0.891,0.438,1.696,1.14,2.31C7.229,9.361,7.174,9.372,7.121,9.39c-3.345,1.059-5.506,3.539-5.506,6.319v1.998
		c0,1.188,1.049,2.077,3.119,2.644C6.266,20.77,8.314,21,10.5,21c1.483,0,8.884-0.159,8.884-3.293
		C19.384,17.261,19.022,16.899,18.576,16.899z M7.758,7.035V3.456c0-0.998,1.256-1.84,2.742-1.84c1.485,0,2.74,0.843,2.74,1.84
		v3.579c0,0.998-1.255,1.84-2.74,1.84C9.014,8.875,7.758,8.033,7.758,7.035z"/>
	<g>
		<path fill="#CAB2D5" d="M18.576,15.465h-7.825c-0.446,0-0.808-0.361-0.808-0.808s0.361-0.808,0.808-0.808h6.058l-1.115-1.289
			c-0.292-0.338-0.256-0.848,0.082-1.14c0.337-0.291,0.848-0.255,1.139,0.082l2.271,2.626c0.208,0.238,0.256,0.576,0.124,0.864
			C19.18,15.28,18.893,15.465,18.576,15.465z"/>
	</g>
</g>
</svg>
