<?xml version="1.0" encoding="utf-8"?>
<!-- Generator: Adobe Illustrator 16.0.0, SVG Export Plug-In . SVG Version: 6.00 Build 0)  -->
<!DOCTYPE svg PUBLIC "-//W3C//DTD SVG 1.1//EN" "http://www.w3.org/Graphics/SVG/1.1/DTD/svg11.dtd">
<svg version="1.1" id="Layer_1" xmlns="http://www.w3.org/2000/svg" xmlns:xlink="http://www.w3.org/1999/xlink" x="0px" y="0px"
	 width="20px" height="20px" viewBox="0 0 20 20" enable-background="new 0 0 20 20" xml:space="preserve">
<g>
	<path fill="#121212" d="M10,0C4.478,0,0,4.478,0,10c0,5.521,4.478,10,10,10c5.521,0,10-4.479,10-10C20,4.478,15.521,0,10,0z
		 M12.081,15.498c-0.515,0.203-0.925,0.357-1.231,0.464c-0.306,0.106-0.663,0.16-1.067,0.16c-0.623,0-1.108-0.151-1.453-0.456
		c-0.346-0.305-0.518-0.689-0.518-1.158c0-0.182,0.013-0.367,0.038-0.557c0.026-0.19,0.067-0.404,0.124-0.643l0.645-2.276
		c0.057-0.218,0.105-0.427,0.145-0.618c0.039-0.195,0.058-0.374,0.058-0.537c0-0.289-0.06-0.492-0.179-0.606
		c-0.121-0.114-0.35-0.17-0.689-0.17c-0.166,0-0.336,0.024-0.512,0.076C7.266,9.23,7.115,9.278,6.992,9.326l0.17-0.701
		c0.422-0.172,0.825-0.319,1.211-0.441c0.385-0.123,0.748-0.185,1.092-0.185c0.619,0,1.096,0.151,1.432,0.448
		C11.23,8.746,11.4,9.135,11.4,9.613c0,0.099-0.014,0.273-0.035,0.521c-0.023,0.25-0.066,0.478-0.129,0.688l-0.641,2.268
		c-0.054,0.184-0.101,0.391-0.143,0.623s-0.062,0.411-0.062,0.53c0,0.302,0.066,0.507,0.202,0.616
		c0.134,0.108,0.368,0.164,0.7,0.164c0.156,0,0.332-0.027,0.529-0.082s0.34-0.103,0.429-0.145L12.081,15.498z M11.968,6.289
		c-0.299,0.277-0.659,0.416-1.079,0.416s-0.782-0.139-1.083-0.416c-0.299-0.277-0.451-0.615-0.451-1.01
		c0-0.394,0.152-0.732,0.451-1.013c0.302-0.28,0.664-0.421,1.083-0.421s0.781,0.141,1.079,0.421c0.3,0.28,0.448,0.619,0.448,1.013
		C12.416,5.674,12.268,6.012,11.968,6.289z"/>
</g>
<rect fill="none" width="20" height="20"/>
<rect fill="none" width="20" height="20"/>
</svg>
