<?xml version="1.0" encoding="utf-8"?>
<!-- Generator: Adobe Illustrator 16.0.0, SVG Export Plug-In . SVG Version: 6.00 Build 0)  -->
<!DOCTYPE svg PUBLIC "-//W3C//DTD SVG 1.1//EN" "http://www.w3.org/Graphics/SVG/1.1/DTD/svg11.dtd">
<svg version="1.1" id="Capa_1" xmlns="http://www.w3.org/2000/svg" xmlns:xlink="http://www.w3.org/1999/xlink" x="0px" y="0px"
	 width="512px" height="512px" viewBox="0 0 512 512" enable-background="new 0 0 512 512" xml:space="preserve">
<rect fill="none" width="512" height="512"/>
<g>
	<g>
		<path d="M363.27,0H148.728C66.72,0,0,66.72,0,148.728V363.27C0,445.28,66.72,512,148.728,512H363.27
			C445.28,512,512,445.28,512,363.27V148.728C512,66.72,445.28,0,363.27,0z M472,363.27C472,423.225,423.225,472,363.27,472H148.728
			C88.775,472,40,423.225,40,363.27V148.728C40,88.775,88.775,40,148.728,40H363.27C423.225,40,472,88.775,472,148.728V363.27z"/>
	</g>
</g>
<g>
	<g>
		<path d="M256,118c-76.095,0-138,61.905-138,138s61.905,138,138,138s138-61.905,138-138S332.095,118,256,118z M256,354
			c-54.037,0-98-43.96-98-98c0-54.037,43.963-98,98-98c54.04,0,98,43.963,98,98C354,310.04,310.04,354,256,354z"/>
	</g>
</g>
<g>
	<g>
		<circle cx="396" cy="116" r="20"/>
	</g>
</g>
</svg>
