<?xml version="1.0" encoding="utf-8"?>
<!-- Generator: Adobe Illustrator 16.0.0, SVG Export Plug-In . SVG Version: 6.00 Build 0)  -->
<!DOCTYPE svg PUBLIC "-//W3C//DTD SVG 1.1//EN" "http://www.w3.org/Graphics/SVG/1.1/DTD/svg11.dtd">
<svg version="1.1" id="Capa_1" xmlns="http://www.w3.org/2000/svg" xmlns:xlink="http://www.w3.org/1999/xlink" x="0px" y="0px"
	 width="512px" height="512px" viewBox="0 0 512 512" enable-background="new 0 0 512 512" xml:space="preserve">
<g>
	<path d="M483.72,0.001H28.263C12.662,0.001,0,12.638,0,28.257v455.472c0,15.618,12.662,28.272,28.263,28.272h245.207V313.727
		h-66.719v-77.283h66.719v-56.988c0-66.127,40.374-102.146,99.371-102.146c28.279,0,52.533,2.115,59.605,3.029v69.115l-40.917,0.017
		c-32.075,0-38.267,15.257-38.267,37.617v49.332h76.532l-10.011,77.274h-66.529v198.282h130.457
		c15.618,0,28.288-12.67,28.288-28.247V28.24C511.992,12.638,499.338,0.001,483.72,0.001z"/>
</g>
</svg>
