<?xml version="1.0" encoding="utf-8"?>
<!-- Generator: Adobe Illustrator 16.0.0, SVG Export Plug-In . SVG Version: 6.00 Build 0)  -->
<!DOCTYPE svg PUBLIC "-//W3C//DTD SVG 1.1//EN" "http://www.w3.org/Graphics/SVG/1.1/DTD/svg11.dtd">
<svg version="1.1" id="Capa_1" xmlns="http://www.w3.org/2000/svg" xmlns:xlink="http://www.w3.org/1999/xlink" x="0px" y="0px"
	 width="512px" height="512px" viewBox="0 0 512 512" enable-background="new 0 0 512 512" xml:space="preserve">
<rect y="0" fill="none" width="512" height="512"/>
<g>
	<path d="M480.32,128.39c-29.221,0-56.181-9.68-77.83-26.01c-24.83-18.72-42.67-46.18-48.971-77.83
		c-1.56-7.82-2.399-15.89-2.479-24.16h-83.47v228.08L267.47,353.4c0,33.4-21.75,61.72-51.9,71.68
		c-8.75,2.891-18.2,4.261-28.04,3.721c-12.56-0.69-24.33-4.48-34.56-10.601c-21.77-13.02-36.53-36.64-36.93-63.66
		c-0.63-42.229,33.51-76.659,75.71-76.659c8.33,0,16.33,1.359,23.82,3.83v-62.34v-22.41c-7.9-1.17-15.94-1.78-24.07-1.78
		c-46.19,0-89.39,19.2-120.27,53.79c-23.34,26.14-37.34,59.489-39.5,94.46c-2.83,45.939,13.98,89.609,46.58,121.83
		c4.79,4.729,9.82,9.12,15.08,13.17c27.95,21.51,62.12,33.17,98.11,33.17c8.13,0,16.17-0.601,24.07-1.771
		c33.62-4.979,64.64-20.369,89.12-44.569c30.08-29.73,46.701-69.2,46.881-111.21l-0.43-186.561
		c14.35,11.07,30.039,20.23,46.879,27.341c26.19,11.05,53.961,16.649,82.54,16.64v-60.61V128.37
		C480.58,128.39,480.34,128.39,480.32,128.39L480.32,128.39z"/>
</g>
</svg>
